<?xml version="1.0" standalone="no"?>
<!DOCTYPE svg PUBLIC "-//W3C//DTD SVG 20010904//EN"
 "http://www.w3.org/TR/2001/REC-SVG-20010904/DTD/svg10.dtd">
<svg version="1.0" xmlns="http://www.w3.org/2000/svg"
 width="1280.000000pt" height="1140.000000pt" viewBox="0 0 1280.000000 1140.000000"
 preserveAspectRatio="xMidYMid meet">
<metadata>
Created by potrace 1.15, written by Peter Selinger 2001-2017
</metadata>
<g transform="translate(0.000000,1140.000000) scale(0.100000,-0.100000)"
fill="#ffffff" stroke="none">
<path d="M12255 11263 c-379 -367 -855 -746 -1388 -1102 -95 -64 -148 -106
-172 -139 -45 -60 -113 -200 -160 -327 -83 -227 -158 -341 -265 -403 -25 -15
-1136 -864 -2470 -1887 l-2425 -1860 -62 -3 c-78 -5 -204 26 -293 70 -82 41
-194 151 -237 233 -64 123 -78 184 -78 350 0 129 3 160 23 225 57 180 127 278
336 469 257 235 305 296 307 391 2 60 -14 88 -76 130 -236 163 -561 125 -866
-101 -204 -151 -362 -362 -453 -604 -37 -99 -162 -352 -229 -463 -227 -376
-519 -653 -838 -794 -186 -82 -264 -98 -729 -148 -876 -96 -1364 -275 -1726
-635 -322 -320 -471 -706 -451 -1165 17 -378 147 -801 374 -1214 200 -365 386
-618 719 -976 484 -521 994 -908 1469 -1115 402 -175 840 -241 1080 -161 352
117 623 378 884 852 83 150 387 781 418 869 81 226 208 384 399 496 106 62
196 98 479 191 137 45 298 106 375 142 74 35 170 79 212 99 128 59 245 143
369 267 114 113 164 182 203 280 23 57 23 153 1 207 -19 48 -125 153 -155 153
-10 0 -39 -9 -63 -19 -78 -34 -248 -70 -367 -79 -297 -23 -565 39 -727 168
-59 47 -133 151 -158 225 -35 102 -28 345 12 449 25 62 79 142 131 195 26 26
119 101 208 168 88 66 187 145 220 175 32 30 824 682 1759 1449 1890 1551
1975 1620 2671 2181 l491 396 44 -9 c168 -32 346 21 465 138 52 51 55 53 77
38 23 -14 23 -19 15 -72 -10 -66 1 -88 70 -137 l41 -29 57 34 c31 19 63 45 72
58 18 27 34 135 24 162 -7 19 -109 99 -125 99 -6 0 -29 -16 -52 -34 -39 -33
-44 -34 -64 -20 l-21 15 19 28 c11 16 41 70 67 122 25 52 48 96 50 98 2 2 19
-7 38 -20 28 -19 35 -31 40 -70 5 -39 14 -54 56 -93 27 -25 55 -46 62 -46 19
0 86 47 96 68 5 9 7 45 4 80 -4 60 -6 64 -59 112 -30 28 -62 50 -71 50 -9 0
-28 -12 -43 -26 l-28 -26 -30 21 c-17 13 -31 24 -31 27 0 9 103 250 110 258 5
5 22 -1 38 -13 24 -17 32 -31 37 -71 6 -40 14 -56 45 -84 64 -57 74 -60 119
-31 54 34 61 49 52 125 -8 61 -10 66 -62 112 -30 26 -61 48 -68 48 -8 0 -27
-12 -42 -26 l-26 -25 -29 25 -29 25 24 43 c13 24 44 80 68 125 24 46 48 85 52
88 16 9 91 -58 110 -98 10 -23 41 -64 69 -91 51 -49 51 -49 77 -32 28 19 28
24 -6 104 -22 51 -116 154 -138 150 -9 -1 -28 6 -43 16 l-27 18 82 109 c45 60
86 109 90 109 4 0 20 -9 36 -21 27 -20 28 -23 23 -88 l-4 -67 37 -33 c66 -58
77 -59 140 -18 69 47 81 67 90 149 l7 68 -38 34 c-21 20 -53 43 -70 52 l-32
18 -41 -37 c-33 -30 -45 -35 -60 -28 -45 25 -43 33 43 148 46 61 86 117 88
124 3 10 14 7 41 -14 32 -24 37 -34 37 -68 0 -34 7 -48 45 -88 25 -27 54 -51
64 -54 20 -5 90 33 103 57 5 8 6 45 2 81 -6 61 -10 68 -53 110 -57 56 -82 64
-112 36 -27 -25 -28 -25 -57 -3 l-23 18 35 73 c96 200 81 352 -46 487 -44 47
-128 115 -140 114 -2 -1 -66 -62 -143 -137z m-7776 -5540 c24 -30 21 -55 -13
-91 -23 -26 -150 -102 -461 -277 -115 -64 -232 -131 -258 -148 -87 -54 -86
-89 3 -136 66 -35 90 -56 90 -76 0 -26 -52 -75 -113 -105 -97 -47 -179 -53
-393 -30 -97 11 -223 20 -279 20 -88 0 -106 -3 -129 -21 -33 -26 -34 -68 -3
-103 12 -14 53 -43 92 -63 99 -54 113 -96 52 -161 -72 -78 -161 -83 -477 -26
-268 48 -443 52 -625 16 -322 -66 -652 -184 -813 -294 -64 -43 -206 -187 -274
-278 -125 -168 -173 -295 -172 -460 0 -81 5 -118 22 -164 61 -167 222 -324
398 -388 82 -30 249 -37 330 -13 102 29 173 74 270 170 145 143 204 251 204
375 0 76 -22 134 -75 203 -33 42 -52 57 -70 57 -33 0 -41 -19 -55 -135 -18
-159 -75 -256 -189 -323 -41 -24 -56 -27 -141 -27 -84 0 -101 3 -147 28 -70
36 -120 81 -145 130 -16 33 -19 55 -16 117 4 105 59 217 151 310 74 76 138
113 228 135 322 75 600 -144 576 -455 -25 -305 -264 -601 -548 -677 -95 -25
-271 -23 -372 5 -259 73 -461 279 -513 524 -23 107 -14 286 20 399 36 123 67
189 142 301 151 227 388 414 700 552 167 74 272 106 1154 351 469 130 596 171
872 281 410 162 593 258 797 416 66 51 124 88 137 88 12 0 32 -12 43 -27z
m951 -2112 c5 -11 10 -27 10 -35 0 -8 -48 -55 -107 -104 -155 -128 -284 -282
-484 -577 -135 -198 -239 -381 -514 -900 -113 -213 -238 -431 -296 -515 -189
-275 -411 -448 -674 -525 -73 -22 -111 -27 -205 -27 -207 -1 -335 47 -460 172
-125 126 -183 263 -183 430 1 239 105 410 314 513 129 64 240 85 353 69 205
-30 324 -152 334 -345 10 -197 -87 -342 -273 -408 -39 -14 -85 -21 -130 -21
-110 0 -155 25 -203 117 -36 68 -38 188 -5 251 47 89 136 137 246 133 194 -5
192 -6 195 17 4 27 -51 100 -103 136 -22 16 -65 33 -96 40 -70 15 -159 -5
-263 -58 -195 -99 -282 -220 -293 -404 -16 -263 173 -510 419 -550 195 -31
510 95 670 268 143 155 331 493 393 709 22 74 28 128 40 333 17 274 27 322 80
369 70 61 114 47 141 -47 30 -103 61 -141 105 -127 44 14 66 96 94 348 22 205
63 303 148 356 44 27 64 19 78 -33 29 -111 52 -128 108 -80 17 14 125 128 238
252 114 124 221 233 238 244 39 23 72 23 85 -1z"/>
</g>
</svg>
